<svg width="500" height="500" viewBox="0 0 500 500" xmlns="http://www.w3.org/2000/svg" role="img" aria-label="Cuddies — Empathy">
  <defs>
    <filter id="s" x="-20%" y="-20%" width="140%" height="140%">
      <feDropShadow dx="0" dy="14" stdDeviation="18" flood-color="#FFB3AF" flood-opacity="0.35"/>
    </filter>
  </defs>
  <path d="M250 56c84 0 150 50 152 130 2 74-50 150-130 162-66 10-140-22-160-92C90 178 110 110 160 80 200 56 210 56 250 56Z" fill="#FFB3AF" filter="url(#s)"/>
  <!-- face -->
  <ellipse cx="212" cy="168" rx="13" ry="17" fill="#0A1240"/>
  <ellipse cx="288" cy="168" rx="13" ry="17" fill="#0A1240"/>
  <circle cx="216" cy="162" r="4" fill="#fff"/>
  <circle cx="292" cy="162" r="4" fill="#fff"/>
  <path d="M222 196 Q250 224 278 196" fill="none" stroke="#0A1240" stroke-width="9" stroke-linecap="round"/>
  <circle cx="180" cy="190" r="15" fill="#FF3B61" opacity="0.35"/>
  <circle cx="320" cy="190" r="15" fill="#FF3B61" opacity="0.35"/>
  <!-- domain emblem -->
  <g transform="translate(250 248)">
      <path d="M0 36 C-46 4 -42 -42 -14 -42 C-2 -42 0 -30 0 -26 C0 -30 2 -42 14 -42 C42 -42 46 4 0 36Z" fill="#FF3B61"/></g>
</svg>