<svg width="500" height="500" viewBox="0 0 500 500" xmlns="http://www.w3.org/2000/svg" role="img" aria-label="Lingo — Languages">
  <defs>
    <filter id="s" x="-20%" y="-20%" width="140%" height="140%">
      <feDropShadow dx="0" dy="14" stdDeviation="18" flood-color="#4628D3" flood-opacity="0.35"/>
    </filter>
  </defs>
  <path d="M250 64c66 0 138 30 150 102 12 70-30 150-104 168-66 16-140-18-160-88C112 168 130 100 178 72 214 52 200 64 250 64Z" fill="#4628D3" filter="url(#s)"/>
  <!-- face -->
  <ellipse cx="212" cy="168" rx="13" ry="17" fill="#0A1240"/>
  <ellipse cx="288" cy="168" rx="13" ry="17" fill="#0A1240"/>
  <circle cx="216" cy="162" r="4" fill="#fff"/>
  <circle cx="292" cy="162" r="4" fill="#fff"/>
  <path d="M222 196 Q250 224 278 196" fill="none" stroke="#0A1240" stroke-width="9" stroke-linecap="round"/>
  <circle cx="180" cy="190" r="15" fill="#FFFFFF" opacity="0.25"/>
  <circle cx="320" cy="190" r="15" fill="#FFFFFF" opacity="0.25"/>
  <!-- domain emblem -->
  <g transform="translate(250 250)">
      <rect x="-44" y="-30" width="88" height="56" rx="16" fill="#fff"/>
      <path d="M-18 26 L-2 26 L-26 48 Z" fill="#fff"/>
      <circle cx="-20" cy="-2" r="6" fill="#4628D3"/><circle cx="0" cy="-2" r="6" fill="#4628D3"/><circle cx="20" cy="-2" r="6" fill="#4628D3"/></g>
</svg>